<?xml version="1.0" encoding="UTF-8" standalone="no"?>
<svg
   xmlns:dc="http://purl.org/dc/elements/1.1/"
   xmlns:cc="http://creativecommons.org/ns#"
   xmlns:rdf="http://www.w3.org/1999/02/22-rdf-syntax-ns#"
   xmlns:svg="http://www.w3.org/2000/svg"
   xmlns="http://www.w3.org/2000/svg"
   xmlns:sodipodi="http://sodipodi.sourceforge.net/DTD/sodipodi-0.dtd"
   xmlns:inkscape="http://www.inkscape.org/namespaces/inkscape"
   version="1.1"
   viewBox="0 0 721 773"
   width="721.0pt"
   height="773.0pt"
   id="svg6"
   sodipodi:docname="duck.svg"
   inkscape:version="0.92.4 (5da689c313, 2019-01-14)">
  <metadata
     id="metadata12">
    <rdf:RDF>
      <cc:Work
         rdf:about="">
        <dc:format>image/svg+xml</dc:format>
        <dc:type
           rdf:resource="http://purl.org/dc/dcmitype/StillImage" />
        <dc:title />
      </cc:Work>
    </rdf:RDF>
  </metadata>
  <defs
     id="defs10" />
  <sodipodi:namedview
     pagecolor="#ffffff"
     bordercolor="#666666"
     borderopacity="1"
     objecttolerance="10"
     gridtolerance="10"
     guidetolerance="10"
     inkscape:pageopacity="0"
     inkscape:pageshadow="2"
     inkscape:window-width="958"
     inkscape:window-height="991"
     id="namedview8"
     showgrid="false"
     inkscape:pagecheckerboard="true"
     inkscape:zoom="0.22897801"
     inkscape:cx="-257.87917"
     inkscape:cy="405.61449"
     inkscape:window-x="634"
     inkscape:window-y="0"
     inkscape:window-maximized="0"
     inkscape:current-layer="svg6" />
  <path
     d="M 0.00 0.00 L 721.00 0.00 L 721.00 773.00 L 0.00 773.00 L 0.00 0.00 Z"
     fill="#ffffff"
     id="path2"
     style="fill:#ffffff;fill-opacity:0" />
  <path
     d="M 354.22 28.48 C 367.09 31.29 380.18 35.11 391.98 41.02 C 401.43 45.56 410.27 51.03 418.64 57.33 C 431.46 66.41 442.45 77.57 452.19 89.85 C 464.08 104.97 473.46 122.20 479.47 140.48 C 481.65 146.71 482.84 153.38 484.38 159.81 C 491.06 190.13 488.25 222.41 477.62 251.51 C 468.95 273.59 456.54 294.86 439.83 311.84 C 430.15 321.37 419.81 330.28 408.00 337.06 C 424.28 334.68 441.07 333.21 456.97 328.86 C 470.83 324.43 484.51 319.11 497.44 312.42 C 508.01 306.38 518.84 299.98 528.29 292.28 C 534.91 286.94 541.80 281.83 548.10 276.11 C 558.46 266.21 567.94 255.13 577.52 244.50 C 593.63 229.00 619.36 224.74 639.54 234.50 C 653.43 240.62 664.32 253.32 669.10 267.64 C 670.84 273.30 671.60 279.10 671.90 285.00 C 672.57 296.93 673.64 309.06 673.47 321.00 C 673.32 339.00 673.39 357.00 672.83 375.00 C 671.61 404.60 667.35 433.94 660.62 462.78 C 657.02 475.11 654.07 487.70 649.63 499.75 C 645.72 511.51 641.08 522.94 636.56 534.49 C 631.65 547.17 626.02 559.54 619.46 571.46 C 612.48 584.97 605.45 598.15 596.78 610.78 C 590.49 620.34 583.47 629.44 576.35 638.38 C 564.99 653.18 550.63 666.36 536.44 678.42 C 526.71 686.19 516.47 693.34 505.87 699.87 C 486.63 711.18 466.16 719.89 445.00 726.91 C 431.39 732.00 417.30 734.77 403.00 737.06 C 362.04 743.06 321.08 741.92 279.99 738.11 C 271.30 736.78 262.53 735.20 254.05 732.87 C 228.75 726.69 204.57 714.69 183.49 699.51 C 172.43 691.34 162.34 682.10 152.54 672.48 C 143.24 662.80 135.70 650.91 128.14 639.80 C 119.55 625.14 111.72 609.55 106.89 593.23 C 98.70 567.36 95.45 540.06 97.36 512.99 C 99.69 486.38 106.44 460.29 118.31 436.32 C 123.31 426.82 128.62 417.51 134.50 408.53 C 140.28 400.72 146.41 393.14 152.90 385.92 C 164.11 374.08 176.55 363.63 189.87 354.24 C 178.31 349.65 167.12 344.59 155.27 340.71 C 145.59 337.67 135.94 334.36 126.59 330.39 C 104.26 321.26 82.91 309.06 62.22 296.77 C 58.80 294.59 55.49 292.18 52.43 289.52 C 48.03 285.61 44.99 280.01 45.49 273.98 C 45.70 268.08 49.29 262.44 53.86 258.88 C 59.18 254.98 67.16 254.37 73.53 254.36 C 63.91 243.03 56.66 230.46 49.48 217.52 C 45.04 209.33 39.86 202.01 37.72 193.01 C 36.47 188.23 36.86 183.14 40.25 179.31 C 45.30 172.15 55.17 166.44 64.06 168.91 C 72.22 170.98 80.31 173.34 88.50 175.30 C 110.36 179.54 135.15 172.89 150.87 156.81 C 154.28 153.39 155.33 149.31 156.96 144.93 C 161.35 133.26 165.54 121.61 171.59 110.61 C 177.10 101.54 182.60 92.60 189.58 84.56 C 197.08 75.89 205.18 67.22 214.57 60.58 C 226.01 51.52 238.88 44.19 252.24 38.38 C 264.69 33.61 276.80 29.02 290.06 27.01 C 310.94 23.81 333.64 23.13 354.22 28.48 Z"
     fill="#ffa500"
     id="path4"
     style="fill-opacity:1;fill:#f6d400" />
</svg>
