<?xml version="1.0" encoding="UTF-8" standalone="no"?>
<svg
   xmlns:dc="http://purl.org/dc/elements/1.1/"
   xmlns:cc="http://creativecommons.org/ns#"
   xmlns:rdf="http://www.w3.org/1999/02/22-rdf-syntax-ns#"
   xmlns:svg="http://www.w3.org/2000/svg"
   xmlns="http://www.w3.org/2000/svg"
   xmlns:sodipodi="http://sodipodi.sourceforge.net/DTD/sodipodi-0.dtd"
   xmlns:inkscape="http://www.inkscape.org/namespaces/inkscape"
   version="1.1"
   viewBox="0 0 1301 245"
   width="1301.0pt"
   height="245.0pt"
   id="svg38"
   sodipodi:docname="singularity_logo.svg"
   inkscape:version="0.92.3 (2405546, 2018-03-11)">
  <metadata
     id="metadata44">
    <rdf:RDF>
      <cc:Work
         rdf:about="">
        <dc:format>image/svg+xml</dc:format>
        <dc:type
           rdf:resource="http://purl.org/dc/dcmitype/StillImage" />
        <dc:title></dc:title>
      </cc:Work>
    </rdf:RDF>
  </metadata>
  <defs
     id="defs42" />
  <sodipodi:namedview
     pagecolor="#ffffff"
     bordercolor="#666666"
     borderopacity="1"
     objecttolerance="10"
     gridtolerance="10"
     guidetolerance="10"
     inkscape:pageopacity="0"
     inkscape:pageshadow="2"
     inkscape:window-width="1920"
     inkscape:window-height="1026"
     id="namedview40"
     showgrid="false"
     inkscape:zoom="0.57878555"
     inkscape:cx="825.27694"
     inkscape:cy="157.08922"
     inkscape:window-x="0"
     inkscape:window-y="0"
     inkscape:window-maximized="1"
     inkscape:current-layer="svg38" />
  <path
     d="M 792.22 31.80 C 794.85 35.77 794.02 40.47 794.15 45.00 C 794.15 85.01 794.17 125.02 794.14 165.02 C 794.18 168.35 793.21 171.50 790.94 173.97 C 786.94 178.36 779.95 179.25 774.95 176.05 C 771.16 173.66 769.19 169.46 769.30 165.03 C 769.29 123.02 769.29 80.98 769.30 38.97 C 769.17 34.29 771.44 29.84 775.60 27.57 C 781.24 24.40 788.80 26.28 792.22 31.80 Z"
     fill="#ffffff"
     id="path4" />
  <path
     d="M 325.47 27.68 C 331.53 26.03 339.37 27.43 342.87 33.13 C 345.88 38.32 344.93 46.20 339.79 49.79 C 334.18 53.84 325.22 53.66 320.00 49.01 C 316.16 45.63 315.50 40.26 316.76 35.53 C 318.04 31.48 321.47 28.79 325.47 27.68 Z"
     fill="#ffffff"
     id="path6" />
  <path
     d="M 1040.50 27.82 C 1045.27 26.38 1051.08 26.85 1055.22 29.78 C 1061.21 33.76 1061.65 43.73 1056.63 48.63 C 1051.32 53.83 1041.42 53.98 1035.77 49.25 C 1031.49 45.74 1030.77 39.45 1032.64 34.50 C 1034.09 31.15 1037.07 28.90 1040.50 27.82 Z"
     fill="#ffffff"
     id="path8" />
  <path
     d="M 1108.02 38.24 C 1114.68 37.92 1120.55 43.30 1120.78 49.97 C 1120.95 56.31 1120.79 62.66 1120.85 68.99 C 1127.57 69.06 1134.31 68.88 1141.03 69.07 C 1146.34 69.31 1150.89 73.65 1151.19 79.00 C 1151.64 84.87 1146.89 90.07 1141.04 90.31 C 1134.32 90.48 1127.58 90.31 1120.85 90.38 C 1120.84 107.92 1120.83 125.47 1120.86 143.01 C 1120.91 147.13 1121.56 151.31 1124.90 154.10 C 1128.98 157.29 1134.17 156.96 1139.02 156.39 C 1144.50 155.51 1149.91 159.56 1150.70 165.02 C 1151.50 169.91 1148.11 174.81 1143.51 176.35 C 1135.57 179.12 1126.79 179.60 1118.53 178.21 C 1112.52 177.24 1106.93 174.76 1102.88 170.10 C 1097.63 164.05 1096.12 155.78 1096.01 148.00 C 1095.95 128.80 1096.02 109.59 1095.98 90.39 C 1091.68 90.41 1087.87 90.65 1084.54 87.46 C 1079.86 83.10 1080.21 75.16 1085.31 71.27 C 1088.58 68.69 1092.05 69.01 1095.99 68.98 C 1096.04 62.65 1095.89 56.30 1096.05 49.97 C 1096.25 43.59 1101.69 38.42 1108.02 38.24 Z"
     fill="#ffffff"
     id="path12" />
  <path
     d="M 443.98 67.03 C 452.27 68.74 459.85 73.25 464.83 80.17 C 470.73 88.28 472.70 98.09 472.72 107.97 C 472.72 127.28 472.78 146.63 472.69 165.93 C 472.64 172.44 467.51 177.73 461.00 177.96 C 454.12 178.36 448.01 173.00 447.93 166.02 C 447.81 151.36 447.91 136.67 447.88 122.00 C 447.86 114.97 448.16 108.13 445.37 101.51 C 443.25 96.00 438.71 91.55 432.98 89.91 C 424.55 87.32 414.48 88.71 407.92 94.91 C 402.26 100.37 400.30 108.33 400.24 115.97 C 400.18 131.98 400.23 148.00 400.23 164.01 C 400.24 166.96 399.94 169.76 398.27 172.28 C 394.85 177.79 387.23 179.57 381.62 176.40 C 377.48 174.12 375.24 169.70 375.37 165.02 C 375.36 136.72 375.36 108.36 375.37 80.06 C 375.30 75.64 377.22 71.42 380.99 69.00 C 386.41 65.45 394.10 66.88 397.82 72.20 C 400.70 76.16 400.18 80.27 400.22 84.89 C 404.24 79.28 408.83 74.32 414.89 70.89 C 423.51 65.91 434.37 65.05 443.98 67.03 Z"
     fill="#ffffff"
     id="path14" />
  <path
     style="fill:#ffffff;stroke-width:1.33333325"
     d="M 728.92578 88.052734 C 718.88686 88.012158 708.82461 90.175469 699.78711 94.480469 C 687.62711 100.2138 677.39906 109.82635 671.03906 121.67969 C 661.02573 140.38635 660.21419 164.36034 667.88086 184.01367 C 673.12086 197.21367 682.86622 208.42612 695.21289 215.43945 C 711.83956 224.98612 732.97393 226.93323 750.94727 220.22656 C 762.77393 215.73323 771.70578 207.45268 779.42578 197.66602 C 779.46578 210.79935 780.17237 222.86669 773.3457 234.69336 C 767.33237 245.10669 756.64068 250.66646 745.02734 252.45312 C 728.33401 254.85312 710.50758 252.13385 695.26758 244.86719 C 691.57424 243.18719 688.05292 240.57253 683.90625 240.50586 C 678.81292 240.25253 673.8793 242.94698 671.2793 247.32031 C 667.38596 253.50698 669.69313 263.00049 676.45312 266.17383 C 694.37312 275.45383 714.47935 280.29315 734.66602 280.14648 C 749.69268 280.11982 765.63956 278.02589 779.21289 271.19922 C 789.26622 266.21255 797.73307 258.32073 803.06641 248.41406 C 810.26641 235.2274 812.23964 220.16065 812.29297 205.33398 C 812.3063 172.46732 812.33263 139.50729 812.2793 106.64062 C 812.4393 99.560625 808.27995 93.000807 801.61328 90.494141 C 794.15995 87.587474 785.53414 90.573125 781.49414 97.453125 C 778.57414 102.25312 779.24016 107.28063 779.16016 112.64062 C 771.58682 103.78729 762.83917 96.347161 751.8125 92.173828 C 744.52667 89.449662 736.73383 88.084294 728.92578 88.052734 z M 736.2207 116 C 749.14301 115.72075 762.09029 120.64518 770.62695 130.66602 C 782.96029 144.91935 782.70667 168.06701 770 182.01367 C 754.89333 198.97367 725.98633 200.85302 708.98633 185.67969 C 692.893 171.79969 691.8675 144.32018 706.1875 128.85352 C 711.7875 122.74685 719.26732 118.74734 727.33398 117.02734 C 730.25898 116.40734 733.23863 116.06444 736.2207 116 z "
     id="path16"
     transform="scale(0.75000002)" />
  <path
     d="M 241.96 67.46 C 256.17 65.71 271.15 69.55 283.62 76.36 C 288.40 79.17 290.24 85.55 287.41 90.38 C 284.68 95.07 278.61 96.49 273.83 94.19 C 264.36 89.62 252.04 84.85 241.48 87.62 C 235.87 89.08 231.75 93.83 233.22 99.85 C 234.69 104.06 239.06 106.34 242.88 108.05 C 254.33 112.85 267.32 114.99 278.00 121.99 C 283.38 125.35 287.75 130.10 289.75 136.21 C 293.47 149.07 289.18 164.19 277.70 171.72 C 269.98 177.00 260.22 178.96 250.99 178.98 C 235.92 178.96 220.86 174.09 208.57 165.38 C 203.52 161.69 203.59 153.32 208.58 149.58 C 212.39 146.60 217.48 147.00 221.37 149.60 C 230.41 155.38 241.15 159.41 251.99 159.25 C 256.54 159.14 261.62 158.28 265.08 155.08 C 268.38 152.06 269.45 146.06 266.59 142.44 C 264.62 139.75 261.20 138.05 258.20 136.79 C 248.39 132.84 237.19 130.90 227.74 126.26 C 221.63 123.19 216.24 119.38 213.03 113.16 C 208.57 104.32 209.42 92.76 214.20 84.21 C 220.00 74.22 230.79 68.88 241.96 67.46 Z"
     fill="#ffffff"
     id="path18" />
  <path
     d="M 337.05 68.95 C 340.84 71.29 342.94 75.54 342.89 79.96 C 342.92 108.29 342.91 136.71 342.90 165.04 C 342.99 169.51 340.96 173.77 337.09 176.10 C 331.57 179.52 323.94 178.14 320.25 172.71 C 317.29 168.51 318.19 163.85 318.05 159.00 C 318.06 132.68 318.03 106.29 318.06 79.98 C 318.02 76.02 319.57 72.18 322.71 69.69 C 326.75 66.44 332.68 66.18 337.05 68.95 Z"
     fill="#ffffff"
     id="path20" />
  <path
     d="M 658.15 68.81 C 662.08 71.13 664.29 75.45 664.21 79.98 C 664.30 96.96 664.13 113.95 664.30 130.93 C 664.47 138.55 666.60 147.15 673.06 151.89 C 681.47 157.94 694.95 157.49 703.03 151.04 C 709.59 145.69 711.83 137.16 711.87 129.01 C 711.94 112.67 711.85 96.32 711.91 79.98 C 711.83 75.73 713.75 71.66 717.28 69.25 C 721.34 66.44 726.87 66.30 731.03 68.96 C 734.83 71.32 737.00 75.53 736.94 79.98 C 736.97 108.30 736.96 136.70 736.94 165.02 C 737.05 169.49 734.92 173.74 731.08 176.09 C 725.56 179.55 717.96 178.09 714.20 172.76 C 711.28 168.75 711.97 164.59 711.89 159.92 C 707.86 165.63 703.29 170.67 697.14 174.15 C 688.89 178.91 678.74 179.83 669.48 178.25 C 661.12 176.80 653.37 172.64 648.10 165.92 C 641.62 157.75 639.38 147.24 639.39 137.00 C 639.37 118.03 639.37 99.03 639.38 80.06 C 639.36 76.39 640.64 72.86 643.37 70.34 C 647.31 66.58 653.51 66.00 658.15 68.81 Z"
     fill="#ffffff"
     id="path22" />
  <path
     style="fill:#ffffff;stroke-width:1.33333325"
     d="M 1159.3242 89.414062 C 1154.3056 89.435449 1149.2828 89.751563 1144.3203 90.226562 C 1133.8003 91.373229 1123.5323 93.933698 1113.6523 97.707031 C 1107.479 99.933698 1103.0396 106.71997 1104.293 113.30664 C 1105.2663 119.09331 1110.1469 123.66612 1115.9336 124.43945 C 1121.1736 125.22612 1125.7206 122.74672 1130.6406 121.38672 C 1140.934 118.53339 1152.0937 117.53328 1162.707 118.61328 C 1171.0404 119.59995 1179.8665 122.61253 1185.1465 129.50586 C 1190.5065 136.31919 1191.1062 144.60026 1191.2129 152.93359 C 1174.1862 147.57359 1156.1334 145.67951 1138.3867 147.82617 C 1125.3201 149.54617 1111.9059 154.17391 1102.8926 164.25391 C 1095.0392 173.00057 1092.174 184.42633 1092.6406 195.98633 C 1092.9206 206.02633 1096.6139 215.81247 1103.5605 223.11914 C 1112.6272 232.73247 1125.6927 237.50646 1138.666 238.45312 C 1149.4127 239.13312 1160.6662 237.66682 1170.5195 233.16016 C 1178.4262 229.60016 1185.2275 224.17362 1190.8809 217.62695 C 1190.9875 221.96029 1190.3864 226.01385 1192.7598 229.86719 C 1198.0664 238.72052 1212.0406 239.82758 1218.9473 232.26758 C 1222.1473 228.92091 1223.2796 224.57367 1223.2129 220.01367 C 1223.1996 196.90701 1223.2126 173.77268 1223.1992 150.66602 C 1223.1459 139.39935 1221.6936 128.26641 1216.627 118.06641 C 1211.4803 107.62641 1202.426 99.373333 1191.666 95 C 1181.381 90.746667 1170.3651 89.367012 1159.3242 89.414062 z M 1159.3789 168.08789 C 1170.3791 168.09263 1181.3704 169.95844 1191.707 173.77344 C 1191.6004 181.49344 1192.52 188.45362 1189 195.62695 C 1184.1067 206.04029 1172.8927 211.90643 1161.9727 213.75977 C 1151.8927 215.35977 1140.2673 214.70633 1132.0273 207.98633 C 1122.3473 200.333 1122.7333 183.8 1132 176 C 1138.0933 170.64 1146.7727 168.67922 1154.666 168.19922 C 1156.236 168.12422 1157.8074 168.08721 1159.3789 168.08789 z "
     transform="scale(0.75000002)"
     id="path24" />
  <path
     d="M 970.22 72.79 C 973.43 77.60 971.82 85.25 972.22 90.83 C 975.98 82.43 981.55 74.32 989.75 69.75 C 994.56 67.07 1001.31 65.82 1006.29 68.72 C 1013.35 72.71 1013.74 84.52 1007.08 89.11 C 1004.42 91.06 1001.34 91.29 998.23 92.15 C 990.83 94.08 984.19 98.57 979.85 104.89 C 974.35 112.77 972.44 122.59 972.25 132.05 C 972.15 143.04 972.26 154.03 972.21 165.03 C 972.24 168.37 971.21 171.49 968.93 173.96 C 965.10 178.15 958.57 179.19 953.62 176.40 C 949.48 174.12 947.24 169.71 947.37 165.03 C 947.36 136.72 947.36 108.36 947.37 80.06 C 947.28 75.38 949.49 70.92 953.63 68.61 C 959.26 65.41 966.81 67.27 970.22 72.79 Z"
     fill="#ffffff"
     id="path26" />
  <path
     d="M 1044.97 67.07 C 1051.93 66.51 1058.12 71.99 1058.34 78.99 C 1058.49 105.61 1058.36 132.36 1058.40 159.00 C 1058.28 163.53 1059.09 168.44 1056.39 172.40 C 1052.91 177.84 1045.32 179.56 1039.75 176.37 C 1035.64 174.06 1033.42 169.68 1033.56 165.01 C 1033.55 136.68 1033.54 108.31 1033.56 79.98 C 1033.35 73.33 1038.25 67.50 1044.97 67.07 Z"
     fill="#ffffff"
     id="path28" />
  <path
     d="M 1186.98 69.06 C 1189.91 71.16 1191.20 74.29 1192.60 77.47 C 1202.21 101.19 1211.76 124.95 1221.38 148.67 C 1230.23 125.11 1239.08 101.56 1247.92 78.00 C 1249.33 74.51 1250.76 71.18 1253.96 68.95 C 1259.29 65.30 1267.12 67.05 1270.50 72.53 C 1273.11 76.55 1272.48 81.50 1270.85 85.76 C 1258.22 116.13 1245.56 146.48 1232.94 176.84 C 1229.96 183.88 1226.87 191.07 1222.22 197.20 C 1217.71 203.61 1211.04 208.29 1203.23 209.58 C 1193.96 211.18 1183.52 210.37 1175.08 205.98 C 1170.22 203.28 1168.76 197.01 1171.17 192.16 C 1173.33 187.91 1178.19 185.96 1182.77 187.10 C 1188.29 188.58 1194.26 190.11 1199.80 187.78 C 1204.61 185.66 1207.71 179.94 1209.49 175.25 C 1196.18 145.60 1182.96 115.90 1169.68 86.23 C 1167.75 81.99 1166.90 77.53 1169.24 73.23 C 1172.49 67.03 1181.30 65.14 1186.98 69.06 Z"
     fill="#ffffff"
     id="path30" />
  <path
     style="fill:#ffffff;stroke-width:0.99999994"
     d="m 95.44206,31.674588 c -1.297305,0.0084 -2.596275,0.04611 -3.89502,0.10986 13.90999,1.47 27.11975,6.860078 37.48975,16.33008 11.52,10.309996 18.82066,24.659979 20.68066,39.979982 -7.56,-11.870003 -18.30959,-21.571036 -31.07959,-27.561039 -13.25,-6.249997 -28.280508,-8.549332 -42.77051,-6.319335 -17.16,2.55 -33.259708,11.320605 -44.699709,24.370606 -7.86,8.889998 -13.420781,19.679458 -16.300781,31.189458 5.7,-13.23 15.530469,-24.410276 28.230469,-31.280276 13.110001,-7.250002 28.530216,-9.499882 43.220215,-6.629887 -14.089999,3.620002 -27.02955,11.24055 -36.78955,22.060553 -9.67,10.66 -16.181114,24.0991 -18.391115,38.3291 -2.479999,15.68 0.230626,32.09086 7.640626,46.13086 6.05,11.57 15.250059,21.39983 26.31006,28.31982 -10.75,-9.52999 -18.289884,-22.28996 -20.879884,-36.45996 -2.84,-14.73 -0.170664,-30.04086 7.069336,-43.13086 -0.77,12.12 1.32959,24.34992 6.32959,35.41992 7.09,15.80001 19.941052,29.02022 35.581058,36.47022 12.279995,5.9 26.158985,8.31113 39.708985,6.91114 14.65,-1.44 28.63093,-7.47106 39.96094,-16.83106 -10.37001,5.94 -21.97998,9.31101 -33.97998,9.04101 -17.36001,-0.24 -34.07083,-7.82055 -45.840823,-20.56054 10.419993,4.11 21.660583,5.98039 32.850583,5.15038 17.82,-1.23999 35.03029,-9.11011 47.5503,-21.87011 12.03,-12.16 19.62011,-28.51078 21.12011,-45.55078 1.07,-11.71 -0.78039,-23.57975 -5.15039,-34.489753 3.06,13.730003 1.82996,28.139963 -4.04004,40.959973 -6.29,14.02999 -17.6398,25.22972 -31.5498,31.71972 8.81,-10.61 14.6698,-23.54022 16.5498,-37.22022 2.31,-16.23 -0.90012,-33.139356 -9.12012,-47.339353 -8.67,-15.109996 -22.73062,-26.950336 -39.14062,-32.840334 -8.56625,-3.141247 -17.58342,-4.468237 -26.66455,-4.409175 z m 11.2998,74.393552 c 5.29166,-0.0197 10.4484,2.36906 13.7959,6.58594 4.67,5.73 5.13914,14.19063 1.11914,20.39062 -3.88,6.18 -11.46033,9.34878 -18.59033,7.73877 -7.699998,-1.64 -13.55953,-8.61 -13.76953,-16.5 -0.39,-8.37999 5.599785,-16.06956 13.77978,-17.80956 1.215,-0.26813 2.44389,-0.40122 3.66504,-0.40577 z"
     id="path48"
     inkscape:connector-curvature="0" />
</svg>
